<?xml version="1.0" encoding="UTF-8"?>
<svg width="137px" height="29px" viewBox="0 0 137 29" version="1.1" xmlns="http://www.w3.org/2000/svg" xmlns:xlink="http://www.w3.org/1999/xlink">
    <!-- Generator: Sketch 51.2 (57519) - http://www.bohemiancoding.com/sketch -->
    <title>branding-logo-data</title>
    <desc>Created with Sketch.</desc>
    <defs></defs>
    <g id="Page-8" stroke="none" stroke-width="1" fill="none" fill-rule="evenodd">
        <g id="登录页面" transform="translate(-687.000000, -227.000000)">
            <g id="Group-2" transform="translate(545.000000, 176.000000)">
                <g id="branding-logo-data" transform="translate(142.000000, 51.000000)">
                    <polygon id="Shape" points="23 12 17 6 23 0"></polygon>
                    <polygon id="Shape" fill="#0046AD" fill-rule="nonzero" points="16 6 10 0 22 0"></polygon>
                    <polygon id="Shape" fill="#0046AD" fill-rule="nonzero" points="22 12 16 6 10 12"></polygon>
                    <polygon id="Shape" points="16 6 10 0 10 12"></polygon>
                    <polygon id="Shape" fill="#0046AD" fill-rule="nonzero" points="22.8564222 12 25 19.8867636 17 22"></polygon>
                    <polygon id="Shape" points="24.8867636 20 27 28 17 22.1435778"></polygon>
                    <polygon id="Shape" points="23 12 25.1132364 20 33 17.8564222"></polygon>
                    <polygon id="Shape" fill="#0046AD" fill-rule="nonzero" points="24 21.1132364 26.1435778 29 32 19"></polygon>
                    <polygon id="Shape" fill="#0046AD" fill-rule="nonzero" points="0 19 8 21.1132364 5.8564222 29"></polygon>
                    <polygon id="Shape" points="8.11323642 20 16 22.1435778 6 28"></polygon>
                    <polygon id="Shape" points="0 17.8564222 7.88676358 20 10 12"></polygon>
                    <polygon id="Shape" fill="#0046AD" fill-rule="nonzero" points="8 19.8867636 16 22 10.1435778 12"></polygon>
                    <polygon id="Shape" fill="#0046AD" fill-rule="nonzero" points="10 0 0 19 10 12.6666667"></polygon>
                    <polygon id="Shape" fill="#0046AD" fill-rule="nonzero" points="23 0 23 12.6666667 33 19"></polygon>
                    <polygon id="Shape" fill="#0046AD" fill-rule="nonzero" points="16.5 23 27 29 6 29"></polygon>
                    <polygon id="Shape" fill="#0046AD" fill-rule="nonzero" points="45.4474299 6.16820754 45.4474299 29 53.5525701 29 53.5525701 6.16820754 67 6.16820754 67 0 32 0 32 6.16820754"></polygon>
                    <path d="M75.7638909,22.7128208 L75.7638909,6.16367814 L87.7888397,6.16367814 C91.0000476,6.16367814 95.4694091,9.4998319 95.4694091,14.5113751 C95.4694091,19.3994172 90.9700519,22.7128208 87.7888397,22.7128208 L75.7638909,22.7128208 Z M68,0 L68,29 L86.2757225,29 C97.9873828,29 103,21.0293063 103,14.504875 C103,7.9804438 97.9873828,0 86.2757225,0 L68,0 Z" id="Shape" fill="#0046AD" fill-rule="nonzero"></path>
                    <rect id="Rectangle-path" fill="#0046AD" fill-rule="nonzero" x="102" y="0" width="8" height="29"></rect>
                    <polygon id="Shape" fill="#0046AD" fill-rule="nonzero" points="112 13.8622177 126.204721 0 136.203792 0 121.312845 13.8622177 137 29 126.556354 29"></polygon>
                </g>
            </g>
        </g>
    </g>
</svg>