<?xml version="1.0" encoding="utf-8"?>
<!-- Generator: Adobe Illustrator 23.0.4, SVG Export Plug-In . SVG Version: 6.00 Build 0)  -->
<svg version="1.1" id="图层_1" xmlns="http://www.w3.org/2000/svg" xmlns:xlink="http://www.w3.org/1999/xlink" x="0px" y="0px"
	 viewBox="0 0 21 21" style="enable-background:new 0 0 21 21;" xml:space="preserve">
<style type="text/css">
	.st0{fill:#0046AD;}
	.st1{fill-rule:evenodd;clip-rule:evenodd;fill:#0046AD;}
	.st2{fill:none;}
	.st3{fill:#BCCCF9;}
	.st4{fill:#9BB1F0;}
</style>
<title>comchat logo</title>
<desc>Created with Sketch.</desc>
<path id="Mask" class="st0" d="M10.5,20.5c-5.5,0-10-4.5-10-10s4.5-10,10-10s10,4.5,10,10S16,20.5,10.5,20.5z M10.5,19.5
	c5,0,9-4,9-9s-4-9-9-9s-9,4-9,9S5.5,19.5,10.5,19.5z"/>
<ellipse class="st1" cx="9.4" cy="8.6" rx="0.5" ry="0.5"/>
<path class="st1" d="M4.4,14.3C2.6,13.1,2,10.5,3.3,8.6S7,6.2,8.9,7.4c0.2,0.1,0.4,0.3,0.5,0.4C9.1,8.1,8.8,8.2,8.5,8
	C7,7,4.9,7.5,3.9,9s-0.6,3.6,0.9,4.6s3.6,0.5,4.6-1c0,0,0,0,0,0c0.1-0.2,0.4-0.2,0.5-0.1s0.2,0.4,0.1,0.5c0,0,0,0,0,0
	C8.8,14.9,6.3,15.5,4.4,14.3z"/>
<path class="st1" d="M8.1,12.1C8.1,12.1,8.1,12.1,8.1,12.1C8.2,12,8.4,12,8.5,12.1c0.1,0.1,0.1,0.3,0,0.4c0,0,0,0,0,0
	c-0.9,1-2.5,1.1-3.5,0.3C4,11.9,3.8,10.3,4.7,9.2S7.2,8,8.3,8.9C8.4,9,8.5,9.1,8.6,9.2C8.3,9.4,8.1,9.5,7.9,9.3
	C7.1,8.6,5.9,8.7,5.2,9.6s-0.6,2.1,0.2,2.8C6.2,13,7.4,12.9,8.1,12.1z"/>
<path class="st2" d="M16.1,10c-0.4,0-0.6,0.3-0.6,0.6s0.3,0.6,0.6,0.6c0.4,0,0.6-0.3,0.6-0.6S16.5,10,16.1,10z"/>
<path class="st2" d="M14.1,10c-0.4,0-0.6,0.3-0.6,0.6s0.3,0.6,0.6,0.6c0.4,0,0.6-0.3,0.6-0.6S14.5,10,14.1,10z"/>
<path class="st2" d="M12.1,10c-0.4,0-0.6,0.3-0.6,0.6s0.3,0.6,0.6,0.6c0.4,0,0.6-0.3,0.6-0.6S12.4,10,12.1,10z"/>
<path class="st0" d="M14.1,14.4c0.2,0,0.3,0,0.5,0c-0.5,0-0.9,0-1.3,0C13.6,14.4,13.8,14.4,14.1,14.4z"/>
<path class="st3" d="M17.9,11.7c-2.8,1-4.7,1.7-5.9,2.1c0.4,0.3,0.8,0.4,1.3,0.5c0.5,0.1,1,0.1,1.3,0C16.3,14.1,17.5,13.2,17.9,11.7
	z"/>
<g>
	<path class="st2" d="M16.1,11.3c0.4,0,0.6-0.3,0.6-0.6S16.5,10,16.1,10c-0.4,0-0.6,0.3-0.6,0.6S15.8,11.3,16.1,11.3z"/>
	<path class="st2" d="M12.1,10c-0.4,0-0.6,0.3-0.6,0.6s0.3,0.6,0.6,0.6c0.4,0,0.6-0.3,0.6-0.6S12.4,10,12.1,10z"/>
	<path class="st2" d="M14.8,10.6c0-0.3-0.3-0.6-0.6-0.6c-0.4,0-0.6,0.3-0.6,0.6s0.3,0.6,0.6,0.6C14.5,11.3,14.8,11,14.8,10.6z"/>
	<path class="st0" d="M13.9,13.2c1.1-0.4,2.4-0.9,4-1.5c0.1-0.4,0.2-0.8,0.2-1.2c0-2.2-1.8-3.9-4-3.9c-1.9,0-3.5,1.3-3.9,3
		c-0.2,0.7-0.8,1.2-1.6,1.5c0.4,0.3,0.9,0.5,1.6,0.7c0,0,0.1,0,0.2,0c0,0,0,0,0,0.1c1.5,0.7,2.7,1.1,3.4,1.3
		C13.8,13.1,13.8,13.2,13.9,13.2z M16.1,10c0.4,0,0.6,0.3,0.6,0.6s-0.3,0.6-0.6,0.6c-0.4,0-0.6-0.3-0.6-0.6S15.8,10,16.1,10z
		 M12.1,11.3c-0.4,0-0.6-0.3-0.6-0.6s0.3-0.6,0.6-0.6c0.4,0,0.6,0.3,0.6,0.6S12.4,11.3,12.1,11.3z M13.5,10.6c0-0.3,0.3-0.6,0.6-0.6
		c0.4,0,0.6,0.3,0.6,0.6s-0.3,0.6-0.6,0.6C13.8,11.3,13.5,11,13.5,10.6z"/>
	<path class="st4" d="M12,13.8c0.5-0.2,1.1-0.4,1.9-0.7c-0.1,0-0.1,0-0.1,0c-0.7-0.1-1.8-0.6-3.4-1.3C10.7,12.7,11.2,13.4,12,13.8z"
		/>
</g>
</svg>
