<?xml version="1.0" encoding="UTF-8"?>
<svg width="79px" height="17px" viewBox="0 0 79 17" version="1.1" xmlns="http://www.w3.org/2000/svg" xmlns:xlink="http://www.w3.org/1999/xlink">
    <!-- Generator: Sketch 51.2 (57519) - http://www.bohemiancoding.com/sketch -->
    <title>top nav_TDKlogo</title>
    <desc>Created with Sketch.</desc>
    <defs></defs>
    <g id="Page-6" stroke="none" stroke-width="1" fill="none" fill-rule="evenodd">
        <g id="表格基本样式" transform="translate(-14.000000, -17.000000)">
            <g id="top-nav_TDKlogo" transform="translate(14.000000, 17.000000)">
                <polygon id="Shape" points="13.2897196 7.24658519 9.59813084 3.6232926 13.2897196 0"></polygon>
                <polygon id="Shape" fill="#0046AD" fill-rule="nonzero" points="9.22897196 3.6232926 5.90654206 0 12.5514019 0"></polygon>
                <polygon id="Shape" fill="#0046AD" fill-rule="nonzero" points="12.5514019 7.24658519 9.22897196 3.6232926 5.90654206 7.24658519"></polygon>
                <polygon id="Shape" points="9.59813084 3.6232926 5.90654206 0 5.90654206 7.24658519"></polygon>
                <polygon id="Shape" fill="#0046AD" fill-rule="nonzero" points="12.8410562 7.24658519 14.0280374 11.8187535 9.59813084 13.0438533"></polygon>
                <polygon id="Shape" points="14.2564809 11.5945363 15.5046729 16.6671459 9.59813084 12.953728"></polygon>
                <polygon id="Shape" points="13.2897196 7.24658519 14.5379116 12.3191948 19.1962617 10.9600031"></polygon>
                <polygon id="Shape" fill="#0046AD" fill-rule="nonzero" points="14.0280374 12.0949776 15.2150186 16.6671459 18.4579439 10.8698778"></polygon>
                <polygon id="Shape" fill="#0046AD" fill-rule="nonzero" points="0 10.8698778 4.42990654 12.0949776 3.24292538 16.6671459"></polygon>
                <polygon id="Shape" points="4.93978076 11.5945363 9.59813084 12.953728 3.69158879 16.6671459"></polygon>
                <polygon id="Shape" points="0 10.9600031 4.65835008 12.3191948 5.90654206 7.24658519"></polygon>
                <polygon id="Shape" fill="#0046AD" fill-rule="nonzero" points="4.42990654 11.8187535 8.85981308 13.0438533 5.61688771 7.24658519"></polygon>
                <polygon id="Shape" fill="#0046AD" fill-rule="nonzero" points="5.90654206 0 0 10.8698778 5.90654206 7.24658519"></polygon>
                <polygon id="Shape" fill="#0046AD" fill-rule="nonzero" points="13.2897196 0 13.2897196 7.24658519 19.1962617 10.8698778"></polygon>
                <polygon id="Shape" fill="#0046AD" fill-rule="nonzero" points="9.59813084 13.0438533 15.5046729 16.6671459 3.69158879 16.6671459"></polygon>
                <polygon id="Shape" fill="#0046AD" fill-rule="nonzero" points="26.1170542 3.5450488 26.1170542 16.6671459 30.7334131 16.6671459 30.7334131 3.5450488 38.3925234 3.5450488 38.3925234 0 18.4579439 0 18.4579439 3.5450488"></polygon>
                <path d="M43.5528382,13.0537207 L43.5528382,3.54244562 L50.401761,3.54244562 C52.2307347,3.54244562 54.7763016,5.4598305 54.7763016,8.34011057 C54.7763016,11.149411 52.2136504,13.0537207 50.401761,13.0537207 L43.5528382,13.0537207 Z M39.1308411,0 L39.1308411,16.6671459 L49.5399509,16.6671459 C56.2104372,16.6671459 59.0654206,12.0861558 59.0654206,8.3363748 C59.0654206,4.58659384 56.2104372,0 49.5399509,0 L39.1308411,0 Z" id="Shape" fill="#0046AD" fill-rule="nonzero"></path>
                <rect id="Rectangle-path" fill="#0046AD" fill-rule="nonzero" x="59.0654206" y="0" width="4.42990654" height="16.6671459"></rect>
                <polygon id="Shape" fill="#0046AD" fill-rule="nonzero" points="64.2336449 7.9670209 72.6237233 0 78.5297164 0 69.7343157 7.9670209 79 16.6671459 72.8314167 16.6671459"></polygon>
            </g>
        </g>
    </g>
</svg>