<?xml version="1.0" encoding="UTF-8"?>
<svg width="18px" height="19px" viewBox="0 0 18 19" version="1.1" xmlns="http://www.w3.org/2000/svg" xmlns:xlink="http://www.w3.org/1999/xlink">
    <!-- Generator: Sketch 51.2 (57519) - http://www.bohemiancoding.com/sketch -->
    <title>top nav_help_icon</title>
    <desc>Created with Sketch.</desc>
    <defs></defs>
    <g id="Page-6" stroke="none" stroke-width="1" fill="none" fill-rule="evenodd">
        <g id="表格基本样式" transform="translate(-847.000000, -16.000000)" fill="#323647">
            <g id="top-nav_help_icon" transform="translate(848.000000, 17.000000)">
                <path d="M8.132,4.264 C8.9,4.264 9.524,4.468 10.004,4.9 C10.484,5.32 10.724,5.896 10.724,6.616 C10.724,7.204 10.568,7.696 10.268,8.08 C10.16,8.212 9.824,8.524 9.26,9.016 C9.032,9.208 8.864,9.424 8.756,9.64 C8.624,9.88 8.564,10.144 8.564,10.432 L8.564,10.636 L7.28,10.636 L7.28,10.432 C7.28,9.988 7.352,9.604 7.52,9.292 C7.676,8.956 8.132,8.464 8.876,7.804 L9.08,7.576 C9.296,7.3 9.416,7.012 9.416,6.7 C9.416,6.28 9.296,5.956 9.068,5.716 C8.828,5.476 8.48,5.356 8.048,5.356 C7.508,5.356 7.112,5.524 6.872,5.872 C6.656,6.16 6.548,6.568 6.548,7.096 L5.288,7.096 C5.288,6.22 5.54,5.536 6.044,5.032 C6.548,4.516 7.244,4.264 8.132,4.264 Z" id="Path"></path>
                <path d="M7.916,11.284 C8.168,11.284 8.384,11.356 8.552,11.524 C8.72,11.68 8.804,11.884 8.804,12.136 C8.804,12.388 8.708,12.592 8.54,12.76 C8.372,12.916 8.156,13 7.916,13 C7.676,13 7.46,12.916 7.292,12.748 C7.124,12.58 7.04,12.376 7.04,12.136 C7.04,11.884 7.124,11.68 7.292,11.524 C7.46,11.356 7.676,11.284 7.916,11.284 Z" id="Path"></path>
                <path d="M8,17.3214286 C3.16750844,17.3214286 -0.75,13.4039201 -0.75,8.57142857 C-0.75,3.73893701 3.16750844,-0.178571429 8,-0.178571429 C12.8324916,-0.178571429 16.75,3.73893701 16.75,8.57142857 C16.75,13.4039201 12.8324916,17.3214286 8,17.3214286 Z M8,15.8214286 C12.0040644,15.8214286 15.25,12.575493 15.25,8.57142857 C15.25,4.56736414 12.0040644,1.32142857 8,1.32142857 C3.99593556,1.32142857 0.75,4.56736414 0.75,8.57142857 C0.75,12.575493 3.99593556,15.8214286 8,15.8214286 Z" id="Oval-3" fill-rule="nonzero"></path>
            </g>
        </g>
    </g>
</svg>